<svg width="27" height="27" viewBox="0 0 27 27" fill="none" xmlns="http://www.w3.org/2000/svg">
<path fill-rule="evenodd" clip-rule="evenodd" d="M6.69077 1.83475C6.69077 1.88241 6.69077 1.91589 6.69077 1.94937C6.69077 5.63028 6.68983 9.31132 6.69226 12.9922C6.69253 13.3673 6.69941 13.7432 6.72776 14.1169C6.77798 14.7779 6.94106 15.4147 7.19581 16.0266C7.81222 17.5072 8.82661 18.6343 10.227 19.4122C10.8663 19.7673 11.551 20.0017 12.2707 20.1318C12.7864 20.2251 13.307 20.2563 13.8296 20.2267C15.0257 20.159 16.1324 19.8069 17.1369 19.1517C18.444 18.2992 19.3559 17.1331 19.8719 15.6601C20.0668 15.1038 20.1805 14.5299 20.2194 13.9413C20.3147 12.5003 19.9961 11.1576 19.2397 9.92733C18.4472 8.63835 17.3398 7.71603 15.9337 7.15551C15.3925 6.93978 14.831 6.80167 14.2519 6.73768C12.6589 6.56191 11.1833 6.89955 9.82588 7.75221C9.8113 7.76139 9.7955 7.76881 9.77296 7.78096C9.77161 7.75032 9.76958 7.72669 9.76958 7.70307C9.76945 5.33382 9.76972 2.96457 9.76783 0.595316C9.76783 0.533621 9.78781 0.510401 9.8441 0.494876C10.4515 0.327746 11.0671 0.200981 11.6912 0.116876C12.4508 0.0144113 13.2144 -0.0181237 13.98 0.00928126C14.5961 0.0312863 15.2081 0.0974363 15.8158 0.204761C17.3645 0.478001 18.8234 1.00234 20.1815 1.79398C22.6273 3.21931 24.4574 5.21434 25.6683 7.77448C26.1665 8.82816 26.5108 9.93178 26.7173 11.0783C26.8889 12.0314 26.9559 12.9928 26.9184 13.9598C26.8297 16.2532 26.2026 18.3895 25.0267 20.3619C24.2502 21.6642 23.2778 22.8013 22.117 23.777C21.0819 24.6466 19.9413 25.3442 18.6967 25.8715C17.8712 26.2213 17.0183 26.4836 16.1397 26.6614C15.106 26.8705 14.061 26.9593 13.0077 26.9167C12.5523 26.8983 12.0967 26.8559 11.6443 26.7995C10.4606 26.6518 9.32138 26.3325 8.22356 25.8675C6.83887 25.2807 5.58607 24.4846 4.46881 23.478C3.00703 22.1609 1.88194 20.6004 1.09948 18.7941C0.673554 17.8105 0.373449 16.7898 0.192684 15.7331C0.0370287 14.8231 -0.0272313 13.9063 0.0105687 12.9849C0.138954 9.85794 1.21598 7.09705 3.2399 4.71039C4.20556 3.5718 5.34023 2.62936 6.6253 1.86877C6.64204 1.85892 6.65986 1.85068 6.69077 1.83475Z" fill="#00B0FF"/>
</svg>
