<svg width="52" height="52" viewBox="0 0 52 52" fill="none" xmlns="http://www.w3.org/2000/svg">
<path fill-rule="evenodd" clip-rule="evenodd" d="M13.3903 4.53294C13.3903 4.62119 13.3903 4.68319 13.3903 4.74519C13.3903 11.5617 13.3886 18.3784 13.3931 25.1949C13.3936 25.8894 13.4063 26.5857 13.4588 27.2777C13.5518 28.5017 13.8538 29.6809 14.3256 30.8142C15.4671 33.5559 17.3456 35.6432 19.9388 37.0837C21.1228 37.7414 22.3908 38.1754 23.7236 38.4164C24.6786 38.5892 25.6426 38.6469 26.6103 38.5922C28.8253 38.4667 30.8748 37.8147 32.7351 36.6014C35.1556 35.0227 36.8443 32.8632 37.7998 30.1354C38.1608 29.1052 38.3713 28.0424 38.4433 26.9524C38.6198 24.2839 38.0298 21.7974 36.6291 19.5192C35.1616 17.1322 33.1108 15.4242 30.5068 14.3862C29.5046 13.9867 28.4648 13.7309 27.3923 13.6124C24.4423 13.2869 21.7098 13.9122 19.1961 15.4912C19.1691 15.5082 19.1398 15.5219 19.0981 15.5444C19.0956 15.4877 19.0918 15.4439 19.0918 15.4002C19.0916 11.0127 19.0921 6.62519 19.0886 2.23769C19.0886 2.12344 19.1256 2.08044 19.2298 2.05169C20.3546 1.74219 21.4946 1.50744 22.6503 1.35169C24.0571 1.16194 25.4711 1.10169 26.8888 1.15244C28.0298 1.19319 29.1631 1.31569 30.2886 1.51444C33.1566 2.02044 35.8581 2.99144 38.3731 4.45744C42.9023 7.09694 46.2916 10.7914 48.5338 15.5324C49.4566 17.4837 50.0941 19.5274 50.4766 21.6507C50.7943 23.4157 50.9183 25.1959 50.8488 26.9867C50.6846 31.2337 49.5233 35.1899 47.3458 38.8424C45.9078 41.2542 44.1071 43.3599 41.9573 45.1667C40.0406 46.7772 37.9283 48.0689 35.6236 49.0454C34.0948 49.6932 32.5153 50.1789 30.8883 50.5082C28.9741 50.8954 27.0388 51.0599 25.0883 50.9809C24.2451 50.9469 23.4013 50.8684 22.5636 50.7639C20.3716 50.4904 18.2618 49.8992 16.2288 49.0379C13.6646 47.9514 11.3446 46.4772 9.27557 44.6129C6.56857 42.1739 4.48507 39.2842 3.03607 35.9392C2.24732 34.1177 1.69157 32.2274 1.35682 30.2707C1.06857 28.5854 0.949572 26.8877 1.01957 25.1814C1.25732 19.3907 3.25182 14.2779 6.99982 9.85819C8.78807 7.74969 10.8893 6.00444 13.2691 4.59594C13.3001 4.57769 13.3331 4.56244 13.3903 4.53294Z" fill="#00B0FF"/>
<path d="M13.3903 4.53294C13.3903 4.62119 13.3903 4.68319 13.3903 4.74519C13.3903 11.5617 13.3886 18.3784 13.3931 25.1949C13.3936 25.8894 13.4063 26.5857 13.4588 27.2777C13.5518 28.5017 13.8538 29.6809 14.3256 30.8142C15.4671 33.5559 17.3456 35.6432 19.9388 37.0837C21.1228 37.7414 22.3908 38.1754 23.7236 38.4164C24.6786 38.5892 25.6426 38.6469 26.6103 38.5922C28.8253 38.4667 30.8748 37.8147 32.7351 36.6014C35.1556 35.0227 36.8443 32.8632 37.7998 30.1354C38.1608 29.1052 38.3713 28.0424 38.4433 26.9524C38.6198 24.2839 38.0298 21.7974 36.6291 19.5192C35.1616 17.1322 33.1108 15.4242 30.5068 14.3862C29.5046 13.9867 28.4648 13.7309 27.3923 13.6124C24.4423 13.2869 21.7098 13.9122 19.1961 15.4912C19.1691 15.5082 19.1398 15.5219 19.0981 15.5444C19.0956 15.4877 19.0918 15.4439 19.0918 15.4002C19.0916 11.0127 19.0921 6.62519 19.0886 2.23769C19.0886 2.12344 19.1256 2.08044 19.2298 2.05169C20.3546 1.74219 21.4946 1.50744 22.6503 1.35169C24.0571 1.16194 25.4711 1.10169 26.8888 1.15244C28.0298 1.19319 29.1631 1.31569 30.2886 1.51444C33.1566 2.02044 35.8581 2.99144 38.3731 4.45744C42.9023 7.09694 46.2916 10.7914 48.5338 15.5324C49.4566 17.4837 50.0941 19.5274 50.4766 21.6507C50.7943 23.4157 50.9183 25.1959 50.8488 26.9867C50.6846 31.2337 49.5233 35.1899 47.3458 38.8424C45.9078 41.2542 44.1071 43.3599 41.9573 45.1667C40.0406 46.7772 37.9283 48.0689 35.6236 49.0454C34.0948 49.6932 32.5153 50.1789 30.8883 50.5082C28.9741 50.8954 27.0388 51.0599 25.0883 50.9809C24.2451 50.9469 23.4013 50.8684 22.5636 50.7639C20.3716 50.4904 18.2618 49.8992 16.2288 49.0379C13.6646 47.9514 11.3446 46.4772 9.27557 44.6129C6.56857 42.1739 4.48507 39.2842 3.03607 35.9392C2.24732 34.1177 1.69157 32.2274 1.35682 30.2707C1.06857 28.5854 0.949572 26.8877 1.01957 25.1814C1.25732 19.3907 3.25182 14.2779 6.99982 9.85819C8.78807 7.74969 10.8893 6.00444 13.2691 4.59594C13.3001 4.57769 13.3331 4.56244 13.3903 4.53294" stroke="white"/>
</svg>
