<svg width="60" height="20" viewBox="0 0 60 20" fill="none" xmlns="http://www.w3.org/2000/svg">
<rect width="60" height="20" fill="#FFEB3B"/>
<path d="M17.069 15.156C16.3497 15.156 15.652 15.0607 14.976 14.87C14.3087 14.6707 13.7713 14.415 13.364 14.103L14.079 12.517C14.469 12.803 14.9327 13.0327 15.47 13.206C16.0073 13.3793 16.5447 13.466 17.082 13.466C17.68 13.466 18.122 13.3793 18.408 13.206C18.694 13.024 18.837 12.7857 18.837 12.491C18.837 12.2743 18.7503 12.0967 18.577 11.958C18.4123 11.8107 18.1957 11.6937 17.927 11.607C17.667 11.5203 17.3117 11.425 16.861 11.321C16.1677 11.1563 15.6 10.9917 15.158 10.827C14.716 10.6623 14.3347 10.398 14.014 10.034C13.702 9.67 13.546 9.18467 13.546 8.578C13.546 8.04933 13.689 7.57267 13.975 7.148C14.261 6.71467 14.69 6.37233 15.262 6.121C15.8427 5.86967 16.549 5.744 17.381 5.744C17.9617 5.744 18.5293 5.81333 19.084 5.952C19.6387 6.09067 20.124 6.29 20.54 6.55L19.89 8.149C19.0493 7.67233 18.2087 7.434 17.368 7.434C16.7787 7.434 16.341 7.52933 16.055 7.72C15.7777 7.91067 15.639 8.162 15.639 8.474C15.639 8.786 15.7993 9.02 16.12 9.176C16.4493 9.32333 16.9477 9.47067 17.615 9.618C18.3083 9.78267 18.876 9.94733 19.318 10.112C19.76 10.2767 20.137 10.5367 20.449 10.892C20.7697 11.2473 20.93 11.7283 20.93 12.335C20.93 12.855 20.7827 13.3317 20.488 13.765C20.202 14.1897 19.7687 14.5277 19.188 14.779C18.6073 15.0303 17.901 15.156 17.069 15.156ZM28.362 13.05H24.137L23.331 15H21.173L25.229 5.9H27.309L31.378 15H29.168L28.362 13.05ZM27.699 11.451L26.256 7.967L24.813 11.451H27.699ZM32.3222 5.9H34.4282V13.284H38.9912V15H32.3222V5.9ZM47.2139 13.31V15H40.1679V5.9H47.0449V7.59H42.2609V9.566H46.4859V11.204H42.2609V13.31H47.2139Z" fill="#FF1744"/>
</svg>
